<svg xmlns="http://www.w3.org/2000/svg" width="224.417" height="57.707" viewBox="0 0 224.417 57.707"><defs><style>.a{fill:#fff;}</style></defs><g transform="translate(-98.999)"><g transform="translate(176.448 12.604)"><path class="a" d="M302.708,37.761a4.813,4.813,0,0,0-.389-1.585,2.8,2.8,0,0,0-.731-.979,2.356,2.356,0,0,0-1.01-.482,5.957,5.957,0,0,0-1.259-.125,2.267,2.267,0,0,0-1.943.855,3.169,3.169,0,0,0-.637,1.943,1.983,1.983,0,0,0,.529,1.445,4.373,4.373,0,0,0,1.352.917,15.457,15.457,0,0,0,1.834.684,15.425,15.425,0,0,1,2,.777,9.3,9.3,0,0,1,1.554.9,4.576,4.576,0,0,1,1.15,1.212,5.615,5.615,0,0,1,.715,1.694,9.509,9.509,0,0,1,.248,2.316,6.6,6.6,0,0,1-1.6,4.787q-1.6,1.648-5.144,1.647t-5.269-1.632a6.284,6.284,0,0,1-1.85-4.492l3.606-.311a3.383,3.383,0,0,0,.948,2.254,3.482,3.482,0,0,0,2.565.855,2.645,2.645,0,0,0,2.253-.886,3.585,3.585,0,0,0,.668-2.223,2.429,2.429,0,0,0-.637-1.772,5.537,5.537,0,0,0-1.57-1.1,13.953,13.953,0,0,0-2-.777,10.7,10.7,0,0,1-1.943-.793,5.185,5.185,0,0,1-2.3-2.269,7.059,7.059,0,0,1-.715-3.2,6.016,6.016,0,0,1,1.555-4.352,6.412,6.412,0,0,1,4.818-1.616,9.262,9.262,0,0,1,2.829.373,4.96,4.96,0,0,1,1.9,1.072,4.386,4.386,0,0,1,1.119,1.71,8.347,8.347,0,0,1,.466,2.285Z" transform="translate(-292.263 -31.451)"/><path class="a" d="M345.609,46.154q0,7.617-6.9,7.616-7.118,0-7.118-7.616V39.067q0-7.616,7.118-7.616,6.9,0,6.9,7.616Zm-10.2,0q0,4.1,3.295,4.1,3.078,0,3.077-4.1V39.067q0-4.1-3.077-4.1-3.3,0-3.295,4.1Z" transform="translate(-315.83 -31.451)"/><path class="a" d="M384.264,35.662h-7.429V41.07h7.15v3.513h-7.15v9.325h-3.823V32.149h11.253Z" transform="translate(-340.652 -31.869)"/><path class="a" d="M417.98,35.662h-5.191V53.908h-3.823V35.662H403.8V32.149H417.98Z" transform="translate(-359.105 -31.869)"/><path class="a" d="M450.529,53.908h-3.948l-1.15-4.445h-5.719l-1.119,4.445H435.3l5.937-21.759h3.326ZM440.4,46.883h4.383l-2.176-8.61Z" transform="translate(-377.978 -31.869)"/><path class="a" d="M484.486,32.149q7.056,0,7.056,6.994,0,6.714-7.274,6.714h-2.176v8.051h-3.823V32.149Zm-2.394,3.513v6.683h2.176q3.45,0,3.45-3.2,0-3.481-3.233-3.482Z" transform="translate(-403.728 -31.869)"/><path class="a" d="M523.037,32.149q7.056,0,7.056,6.994,0,6.714-7.274,6.714h-2.176v8.051H516.82V32.149Zm-2.394,3.513v6.683h2.176q3.45,0,3.45-3.2,0-3.481-3.233-3.482Z" transform="translate(-426.83 -31.869)"/><path class="a" d="M564.032,37.761a4.824,4.824,0,0,0-.389-1.585,2.8,2.8,0,0,0-.731-.979,2.355,2.355,0,0,0-1.01-.482,5.958,5.958,0,0,0-1.259-.125,2.267,2.267,0,0,0-1.943.855,3.169,3.169,0,0,0-.637,1.943,1.983,1.983,0,0,0,.529,1.445,4.367,4.367,0,0,0,1.352.917,15.429,15.429,0,0,0,1.834.684,15.445,15.445,0,0,1,2,.777,9.3,9.3,0,0,1,1.554.9,4.576,4.576,0,0,1,1.15,1.212,5.614,5.614,0,0,1,.715,1.694,9.508,9.508,0,0,1,.248,2.316,6.6,6.6,0,0,1-1.6,4.787q-1.6,1.648-5.144,1.647t-5.269-1.632a6.284,6.284,0,0,1-1.85-4.492l3.606-.311a3.383,3.383,0,0,0,.948,2.254,3.482,3.482,0,0,0,2.565.855,2.645,2.645,0,0,0,2.253-.886,3.588,3.588,0,0,0,.668-2.223,2.429,2.429,0,0,0-.637-1.772,5.537,5.537,0,0,0-1.57-1.1,13.948,13.948,0,0,0-2-.777,10.691,10.691,0,0,1-1.943-.793,5.183,5.183,0,0,1-2.3-2.269,7.058,7.058,0,0,1-.715-3.2,6.016,6.016,0,0,1,1.555-4.352,6.412,6.412,0,0,1,4.818-1.616,9.262,9.262,0,0,1,2.829.373,4.96,4.96,0,0,1,1.9,1.072,4.386,4.386,0,0,1,1.119,1.71,8.35,8.35,0,0,1,.466,2.285Z" transform="translate(-448.863 -31.451)"/><path class="a" d="M595.681,80.31H592.6v-4.1h3.078Z" transform="translate(-472.244 -58.271)"/><path class="a" d="M611.862,53.908h-3.824V32.149h3.824Z" transform="translate(-481.494 -31.869)"/><path class="a" d="M638.037,46.154q0,7.617-6.9,7.616-7.119,0-7.118-7.616V39.067q0-7.616,7.118-7.616,6.9,0,6.9,7.616Zm-10.2,0q0,4.1,3.295,4.1,3.077,0,3.077-4.1V39.067q0-4.1-3.077-4.1-3.3,0-3.295,4.1Z" transform="translate(-491.07 -31.451)"/></g><g transform="translate(197.602 37.69)"><path class="a" d="M351.165,101.514h-.309V94.77l-2.544,6.744h-.422l-2.533-6.723v6.723h-.309V94.307h.463l2.595,6.858,2.584-6.858h.474Z" transform="translate(-345.049 -94.204)"/><path class="a" d="M366.891,101.514h-.329l-.608-1.915h-3.068l-.6,1.915h-.309l2.275-7.207h.35Zm-3.913-2.224h2.883l-1.442-4.571Z" transform="translate(-355.195 -94.204)"/><path class="a" d="M377.533,96.675l2.687,4.839h-.34L377.316,96.9l-1.1,1.133v3.48h-.309V94.307h.309V97.6l3.213-3.295h.422Z" transform="translate(-363.54 -94.204)"/><path class="a" d="M392.1,94.616h-3.532v2.863h3.47v.309h-3.47v3.418h3.552v.309h-3.861V94.307h3.84Z" transform="translate(-370.946 -94.204)"/><path class="a" d="M408.134,98.23v3.284h-.309V98.23l-2.3-3.923h.371l2.09,3.624,2.111-3.624h.36Z" transform="translate(-381.292 -94.204)"/><path class="a" d="M421.827,98.477q0,2.986-2.172,2.986-2.255,0-2.255-2.986V97.036q0-2.986,2.255-2.986,2.172,0,2.172,2.986Zm-.309-1.441q0-2.677-1.863-2.677-1.946,0-1.946,2.677v1.441q0,2.677,1.946,2.677,1.863,0,1.863-2.677Z" transform="translate(-388.405 -94.05)"/><path class="a" d="M434.75,99.661q0,1.957-2.111,1.956t-2.111-1.956V94.307h.309v5.354q0,1.648,1.8,1.647t1.8-1.647V94.307h.309Z" transform="translate(-396.273 -94.204)"/><path class="a" d="M445.979,94.307q1.853,0,1.853,1.75,0,1.616-1.359,1.843l1.39,3.614h-.329l-1.359-3.573h-2.286v3.573h-.309V94.307Zm-2.09.309v3.017h2.09a1.379,1.379,0,0,0,1.544-1.575q0-1.441-1.544-1.441Z" transform="translate(-404.094 -94.204)"/><path class="a" d="M466.176,94.616h-3.223v3.068h3.13v.309h-3.13v3.521h-.309V94.307h3.532Z" transform="translate(-415.519 -94.204)"/><path class="a" d="M477.322,99.661q0,1.957-2.11,1.956T473.1,99.661V94.307h.309v5.354q0,1.648,1.8,1.647t1.8-1.647V94.307h.309Z" transform="translate(-421.785 -94.204)"/><path class="a" d="M489.836,94.616h-2.091v6.9h-.309v-6.9h-2.08v-.309h4.479Z" transform="translate(-429.13 -94.204)"/><path class="a" d="M502.476,99.661q0,1.957-2.111,1.956t-2.111-1.956V94.307h.309v5.354q0,1.648,1.8,1.647t1.8-1.647V94.307h.309Z" transform="translate(-436.858 -94.204)"/><path class="a" d="M513.705,94.307q1.853,0,1.853,1.75,0,1.616-1.359,1.843l1.39,3.614h-.329L513.9,97.942h-2.286v3.573h-.309V94.307Zm-2.09.309v3.017h2.09a1.379,1.379,0,0,0,1.544-1.575q0-1.441-1.544-1.441Z" transform="translate(-444.68 -94.204)"/><path class="a" d="M527.787,94.616h-3.531v2.863h3.47v.309h-3.47v3.418h3.552v.309h-3.861V94.307h3.84Z" transform="translate(-452.255 -94.204)"/><path class="a" d="M546.385,99.126A2.111,2.111,0,0,1,544,101.514h-1.833V94.307H544a2.116,2.116,0,0,1,2.389,2.4Zm-3.913-4.51v6.589H544a1.838,1.838,0,0,0,2.08-2.08v-2.42a1.843,1.843,0,0,0-2.08-2.09Z" transform="translate(-463.172 -94.204)"/><path class="a" d="M555.421,101.514h-.309V94.307h.309Z" transform="translate(-470.931 -94.204)"/><path class="a" d="M562.031,95.934a1.729,1.729,0,0,0-.571-1.174,1.787,1.787,0,0,0-1.189-.4q-1.946,0-1.946,2.677v1.441a3.316,3.316,0,0,0,.5,2.008,1.623,1.623,0,0,0,1.369.669,1.877,1.877,0,0,0,.762-.149,1.7,1.7,0,0,0,.577-.407,1.853,1.853,0,0,0,.366-.587,1.881,1.881,0,0,0,.129-.69V97.994h-1.647v-.309h1.956v3.676H562.1l-.04-1.05a2.068,2.068,0,0,1-.2.34,1.744,1.744,0,0,1-.361.376,2.151,2.151,0,0,1-.551.309,2.048,2.048,0,0,1-.757.129,1.918,1.918,0,0,1-1.6-.747,3.6,3.6,0,0,1-.582-2.239V97.036q0-2.986,2.26-2.986a2.482,2.482,0,0,1,.774.118,1.935,1.935,0,0,1,.634.345,1.755,1.755,0,0,1,.444.561,2.114,2.114,0,0,1,.212.757Z" transform="translate(-472.671 -94.05)"/><path class="a" d="M571.531,101.514h-.309V94.307h.309Z" transform="translate(-480.585 -94.204)"/><path class="a" d="M578.245,94.616h-2.09v6.9h-.309v-6.9h-2.079v-.309h4.479Z" transform="translate(-482.109 -94.204)"/><path class="a" d="M588.414,101.514h-.329l-.608-1.915h-3.068l-.6,1.915H583.5l2.276-7.207h.35ZM584.5,99.29h2.883l-1.442-4.571Z" transform="translate(-487.944 -94.204)"/><path class="a" d="M597.737,101.205h3.212v.309h-3.521V94.307h.309Z" transform="translate(-496.289 -94.204)"/></g><path class="a" d="M122.16,25.29a1.411,1.411,0,1,1,1.108-1.108A1.413,1.413,0,0,1,122.16,25.29Zm.671,5.249a1.411,1.411,0,1,0-1.108,1.108A1.413,1.413,0,0,0,122.831,30.539ZM121.576,41.91H117.7a2.762,2.762,0,0,1-2.332,1.425,2.8,2.8,0,0,1-2.848-2.715,2.761,2.761,0,0,1,5-1.659h2.426a23.924,23.924,0,0,1-1.43-3.952v.015H112.2a2.764,2.764,0,1,1,.1-2.968h6.908a2.853,2.853,0,0,0,2.141,1.075,2.9,2.9,0,0,0,2.95-2.81,2.857,2.857,0,0,0-5.337-1.467H103.959a2.755,2.755,0,0,1-2.075,1.095A2.8,2.8,0,0,1,99,27.234a2.758,2.758,0,0,1,4.948-1.721h15.67a2.79,2.79,0,1,0,.061-3.23H118.63a23.827,23.827,0,0,1,1.461-3.848h-6.839a2.829,2.829,0,1,1,0-3.055h18.623a16.685,16.685,0,0,0-.545,26.531Zm-9.268-24.717a1.463,1.463,0,1,0-1.149,1.148A1.464,1.464,0,0,0,112.308,17.193Zm-9.143,10.278A1.433,1.433,0,1,0,102.04,28.6,1.435,1.435,0,0,0,103.165,27.471Zm8.171,6.267a1.436,1.436,0,1,0-1.127,1.127A1.437,1.437,0,0,0,111.336,33.738Zm5.411,7.182a1.436,1.436,0,1,0-1.127,1.127A1.437,1.437,0,0,0,116.747,40.92Zm52.031-18.407h-3.919c-.011-.04-.024-.078-.034-.117s-.022-.073-.032-.11c-.016-.057-.031-.113-.047-.17l-.026-.091c-.034-.116-.071-.231-.107-.347q-.032-.1-.065-.2c-.015-.046-.031-.091-.046-.137l-.012-.036c-.025-.074-.047-.149-.073-.222-.038-.11-.077-.219-.117-.328-.022-.061-.044-.123-.066-.184s-.039-.1-.058-.151c-.034-.092-.067-.184-.1-.275s-.081-.2-.122-.3c-.022-.054-.043-.109-.066-.163s-.046-.109-.069-.163c-.042-.1-.083-.2-.127-.3s-.081-.179-.122-.268c-.022-.049-.043-.1-.066-.147l-.083-.177c-.049-.1-.1-.21-.149-.314-.035-.071-.072-.14-.107-.21l-.017-.032c-.022-.043-.042-.087-.064-.129l-.1-.191c-.056-.107-.112-.215-.169-.321l-.047-.083c-.028-.052-.058-.1-.087-.154-.019-.033-.036-.067-.055-.1s-.038-.072-.059-.108l2.771-2.771a1.8,1.8,0,0,0,0-2.546L158.917,5.24a1.8,1.8,0,0,0-2.546,0L153.6,8.011l-.108-.059-.1-.055-.155-.087-.081-.046c-.107-.058-.214-.113-.322-.17l-.191-.1-.129-.064-.034-.018c-.07-.035-.138-.072-.208-.106-.1-.051-.21-.1-.315-.15l-.176-.083-.147-.067c-.089-.04-.178-.082-.267-.122s-.2-.085-.3-.127l-.162-.069-.163-.066c-.1-.04-.2-.082-.3-.121s-.184-.069-.277-.1l-.151-.057-.184-.066c-.109-.039-.218-.079-.328-.117l-.224-.073-.035-.011-.136-.046-.206-.065c-.115-.036-.23-.073-.347-.107l-.092-.026-.17-.048-.109-.032-.118-.034V1.8a1.8,1.8,0,0,0-1.8-1.8h-9.081a1.8,1.8,0,0,0-1.8,1.8V5.719l-.118.035-.109.032-.17.048-.091.026c-.116.034-.231.071-.347.107l-.206.065-.137.046-.036.012c-.074.024-.149.047-.222.073-.11.038-.219.077-.328.117l-.184.067-.151.057c-.092.034-.184.067-.276.1s-.2.081-.3.121l-.164.066-.162.069c-.1.042-.2.083-.3.127s-.178.081-.268.122l-.148.067-.176.083c-.105.049-.21.1-.315.149-.071.035-.14.072-.21.107l-.032.016-.13.065-.191.1c-.107.056-.215.111-.321.17l-.083.046-.154.087-.1.055-.107.058L127.078,5.24a1.8,1.8,0,0,0-2.546,0l-6.421,6.421a1.8,1.8,0,0,0-.327.449h23.853a16.67,16.67,0,0,1,16.67,16.67h0a16.67,16.67,0,0,1-16.67,16.67h-23.92a1.792,1.792,0,0,0,.394.594l6.421,6.421a1.8,1.8,0,0,0,2.546,0l2.771-2.771.108.059.1.055.152.086.085.048c.107.058.214.113.321.169l.191.1.129.064.033.017c.07.035.139.072.209.106.1.051.21.1.315.15l.176.083.147.066c.09.041.178.083.268.123s.2.084.3.126l.162.069.163.066c.1.041.2.083.3.122s.184.069.276.1l.151.058.183.066c.109.039.218.079.329.117.074.025.148.048.221.072l.037.012.137.046.205.065c.115.036.231.073.347.107l.092.026.169.047.11.032.117.034v3.919a1.8,1.8,0,0,0,1.8,1.8h9.081a1.8,1.8,0,0,0,1.8-1.8V51.988l.117-.034.111-.032.169-.047.092-.026c.116-.034.231-.071.347-.107l.2-.065.137-.046.036-.012c.074-.024.149-.047.223-.073.11-.038.219-.078.329-.117l.183-.066.151-.058c.092-.034.184-.067.276-.1s.2-.081.3-.122l.163-.066.163-.069c.1-.042.2-.083.3-.127s.179-.082.268-.122l.147-.066.176-.083c.105-.049.21-.1.315-.149.07-.034.139-.071.209-.106l.033-.017.129-.064.192-.1c.107-.056.214-.111.32-.169l.086-.048.151-.085.1-.055c.036-.02.072-.038.108-.059l2.771,2.771a1.8,1.8,0,0,0,2.546,0l6.421-6.421a1.8,1.8,0,0,0,0-2.546l-2.771-2.771c.02-.036.038-.072.058-.107l.055-.1c.028-.051.058-.1.086-.153l.047-.084c.058-.107.113-.214.169-.321.033-.064.067-.127.1-.191.022-.043.042-.087.065-.13l.017-.033c.035-.07.072-.138.106-.208.051-.1.1-.21.15-.315l.083-.176c.023-.049.044-.1.066-.148.04-.089.083-.178.122-.267s.085-.2.127-.3c.023-.054.047-.107.069-.162s.044-.109.066-.164c.04-.1.082-.2.121-.3s.069-.184.1-.277c.018-.05.038-.1.057-.15s.044-.123.067-.184c.039-.109.079-.218.117-.327.025-.075.048-.15.073-.224l.011-.035c.015-.045.031-.091.046-.136q.033-.1.065-.206c.036-.115.073-.23.107-.347.009-.031.017-.062.026-.092.016-.057.032-.113.048-.17.01-.036.022-.073.032-.109s.024-.078.035-.118h3.919a1.8,1.8,0,0,0,1.8-1.8V24.313A1.8,1.8,0,0,0,168.778,22.513ZM141.634,37.875c-3.3,0-5.157-1.469-5.777-4.21h-3.068c.489,3.492,2.937,6.625,8.649,6.625,5.548,0,8.257-2.872,8.257-6.528,0-2.937-1.143-5.45-7.6-7.017-3.982-.979-5.255-1.827-5.255-3.949,0-2.154,1.534-3.394,4.308-3.394,3.329,0,4.569,1.665,4.993,3.656h3.068c-.326-2.97-2.546-6.1-7.963-6.1-5.059,0-7.539,2.741-7.539,6.136,0,3.2,1.86,5.026,7.213,6.332,4.537,1.077,5.646,2.35,5.646,4.634C146.562,36.211,145.159,37.875,141.634,37.875Z"/></g></svg>